# xmcd
#
# Track frame offsets: 
#        150
#        19543
#        36966
#        52116
#        65174
#        82102
#        100761
#        116512
#        128788
#        145086
#        160460
#        178258
#        191587
#        210691
#
# Disc length: 3100 seconds
#
# Revision: 0
# Processed by: cddbd v1.5.1PL0 Copyright (c) Steve Scherf et al.
# Submitted via: ExactAudioCopy v0.95a5
#
DISCID=ce0c1a0e
DTITLE=Carrie Underwood - Carrie Underwood
DYEAR=1900
DGENRE=Country
TTITLE0=Goodbye Earl
TTITLE1=Because You Love Me
TTITLE2=There You Are
TTITLE3=Can't Get Enough
TTITLE4=Show Me Heaven
TTITLE5=Cold Day In July
TTITLE6=Lesson In Leavin'
TTITLE7=Crazy
TTITLE8=Broken Wing
TTITLE9=Tonight The Heartache's On Me
TTITLE10=I Hope You Dance
TTITLE11=Every Time The Phone Rings
TTITLE12=If I Save My Heart For You
TTITLE13=For God So Loved
EXTD=
EXTT0=
EXTT1=
EXTT2=
EXTT3=
EXTT4=
EXTT5=
EXTT6=
EXTT7=
EXTT8=
EXTT9=
EXTT10=
EXTT11=
EXTT12=
EXTT13=
PLAYORDER=
